<svg width="18" height="21" viewBox="0 0 18 21" fill="none" xmlns="http://www.w3.org/2000/svg">
<path d="M14.2532 13.503C13.7528 13.5028 13.2576 13.6031 12.7967 13.7978C12.3358 13.9925 11.9187 14.2776 11.57 14.6364L7.24815 11.8586C7.58812 10.9868 7.58812 10.0192 7.24815 9.14738L11.57 6.36957C12.2192 7.03455 13.0922 7.4348 14.0197 7.49272C14.9472 7.55063 15.8632 7.26208 16.59 6.68302C17.3169 6.10395 17.8028 5.27562 17.9537 4.35862C18.1045 3.44162 17.9095 2.50128 17.4064 1.71991C16.9033 0.938547 16.128 0.371822 15.2308 0.129611C14.3336 -0.112599 13.3784 -0.0130381 12.5504 0.408992C11.7224 0.831022 11.0807 1.54545 10.7495 2.41377C10.4184 3.2821 10.4215 4.24244 10.7582 5.10863L6.43628 7.88644C5.91584 7.35214 5.24789 6.98517 4.51782 6.83245C3.78774 6.67973 3.02871 6.7482 2.33774 7.0291C1.64678 7.31 1.05528 7.79057 0.638853 8.40938C0.222429 9.02819 0 9.75712 0 10.503C0 11.2489 0.222429 11.9778 0.638853 12.5966C1.05528 13.2154 1.64678 13.696 2.33774 13.9769C3.02871 14.2578 3.78774 14.3263 4.51782 14.1736C5.24789 14.0208 5.91584 13.6539 6.43628 13.1196L10.7582 15.8974C10.4686 16.6441 10.4258 17.4639 10.6359 18.2368C10.846 19.0097 11.2981 19.6949 11.9258 20.1923C12.5536 20.6897 13.3241 20.973 14.1245 21.0007C14.9249 21.0285 15.7132 20.7993 16.374 20.3466C17.0347 19.894 17.5331 19.2417 17.7963 18.4853C18.0595 17.7288 18.0736 16.908 17.8365 16.143C17.5994 15.378 17.1236 14.7089 16.4788 14.2339C15.834 13.7588 15.0541 13.5027 14.2532 13.503ZM14.2532 1.503C14.6982 1.503 15.1332 1.63496 15.5032 1.8822C15.8732 2.12943 16.1616 2.48083 16.3319 2.89197C16.5022 3.3031 16.5467 3.7555 16.4599 4.19196C16.3731 4.62841 16.1588 5.02933 15.8441 5.34399C15.5295 5.65866 15.1286 5.87295 14.6921 5.95977C14.2557 6.04659 13.8033 6.00203 13.3921 5.83173C12.981 5.66144 12.6296 5.37305 12.3823 5.00304C12.1351 4.63303 12.0032 4.19801 12.0032 3.753C12.0032 3.15627 12.2402 2.58397 12.6622 2.16201C13.0841 1.74006 13.6564 1.503 14.2532 1.503ZM3.75315 12.753C3.30815 12.753 2.87313 12.621 2.50312 12.3738C2.13311 12.1266 1.84472 11.7752 1.67443 11.364C1.50413 10.9529 1.45957 10.5005 1.54639 10.0641C1.63321 9.62759 1.8475 9.22668 2.16216 8.91201C2.47683 8.59734 2.87774 8.38305 3.3142 8.29624C3.75066 8.20942 4.20306 8.25398 4.61419 8.42427C5.02533 8.59457 5.37673 8.88296 5.62396 9.25297C5.87119 9.62298 6.00315 10.058 6.00315 10.503C6.00315 11.0997 5.7661 11.672 5.34415 12.094C4.92219 12.516 4.34989 12.753 3.75315 12.753ZM14.2532 19.503C13.8081 19.503 13.3731 19.371 13.0031 19.1238C12.6331 18.8766 12.3447 18.5252 12.1744 18.114C12.0041 17.7029 11.9596 17.2505 12.0464 16.814C12.1332 16.3776 12.3475 15.9767 12.6622 15.662C12.9768 15.3473 13.3777 15.1331 13.8142 15.0462C14.2507 14.9594 14.7031 15.004 15.1142 15.1743C15.5253 15.3446 15.8767 15.633 16.124 16.003C16.3712 16.373 16.5032 16.808 16.5032 17.253C16.5032 17.8497 16.2661 18.422 15.8441 18.844C15.4222 19.2659 14.8499 19.503 14.2532 19.503Z" fill="#E8618C"/>
</svg>
